<svg fill="none" height="7" viewBox="0 0 12 7" width="12" xmlns="http://www.w3.org/2000/svg"><path
    d="m5.38783 6.348c.088.088.188.132.3.132.128 0 .256-.064.384-.192l5.11197-5.04c.064-.064.12-.128.168-.192.048-.056.072-.108.072-.156 0-.072-.04-.148-.12-.228l-.48-.48c-.088-.088-.172-.1319999-.252-.1319999-.104 0-.228.0719999-.372.2159999l-4.52397 4.404-4.512-4.464c-.144-.1440004-.268004-.21600046-.372004-.21600046-.08-.00000001-.151999.03200006-.215999.09600006l-.444001.4320004c-.0879999.088-.1319996.188-.13199961.3 0 .144.06000041.264.18000061.36z" fill="currentColor"/></svg>
