<svg fill="none" height="73" viewBox="0 0 124 73" width="124" xmlns="http://www.w3.org/2000/svg"><g clip-rule="evenodd" fill-rule="evenodd"><g fill="#9db82c"><path d="m77.9702 44.109-1.8345-5.5709h-9.8987l-1.9618 5.5709h-4.0691l10.808-26.7743h.963l10.026 26.7743zm-6.6474-19.8513-4.1228 11.6294h7.9012z"/><path d="m92.3933 44.109h-7.5925v-26.4136c3.2329-.1562 5.5643-.2344 6.9929-.2344 2.6278 0 4.6621.5617 6.1025 1.6855 1.4414 1.1243 2.1618 2.7317 2.1618 4.8235 0 1.2263-.4602 2.3441-1.3808 3.3537-.92 1.0102-1.9372 1.6409-3.0515 1.893 2.1069.5054 3.6414 1.3405 4.6053 2.5069.963 1.166 1.444 2.752 1.444 4.7596 0 2.3197-.857 4.1711-2.571 5.5532-1.7123 1.3815-3.9496 2.0726-6.7107 2.0726zm-3.9598-23.5292v7.5907c.7626.0721 1.7077.1086 2.8337.1086 3.439 0 5.1584-1.3887 5.1584-4.165 0-2.4404-1.5799-3.6601-4.7403-3.6601-1.2119-.0005-2.2955.0416-3.2518.1258zm0 10.3853v10.0789c1.2466.1202 2.204.1801 2.8695.1801 2.2766 0 3.9383-.4232 4.9862-1.2705 1.0468-.8478 1.5712-2.1969 1.5712-4.0483 0-1.7184-.4999-2.9863-1.4992-3.8042-.9987-.8169-2.6671-1.2258-5.004-1.2258z"/><path d="m122.836 18.6686-1.217 3.0832c-1.162-.8417-2.991-1.2623-5.485-1.2623-2.338 0-4.211.998-5.622 2.993-1.41 1.9954-2.116 4.5678-2.116 7.7165 0 3.0057.723 5.4425 2.17 7.3117 1.448 1.8691 3.315 2.8037 5.604 2.8037 2.494 0 4.414-.8772 5.758-2.6322l1.998 2.7585c-2.107 2.0797-4.82 3.1188-8.138 3.1188-3.475 0-6.212-1.244-8.21-3.7322-1.998-2.4881-2.997-5.7698-2.997-9.8444 0-3.9423 1.065-7.2183 3.197-9.8262 2.131-2.6084 4.886-3.9123 8.265-3.9123 2.894-.0005 5.159.4749 6.793 1.4242z"/></g><g fill="#b0c625"><path d="m60.7856 54.375.3685-.9163c.1886.1365.4242.2496.7059.3409.2806.0914.5326.137.7549.137.3941 0 .711-.106.9502-.3181.2392-.2126.3589-.4835.3589-.8123 0-.2456-.0665-.4734-.2004-.6844-.1334-.2111-.4677-.4409-1.0029-.6895l-.596-.274c-.5055-.2324-.8587-.5079-1.058-.8265-.2009-.3186-.3011-.7022-.3011-1.1502 0-.5449.1958-.9955.5863-1.3542s.8919-.5378 1.5053-.5378c.8183 0 1.3883.1314 1.7077.3932l-.298.8666c-.1344-.0964-.3404-.1898-.6164-.2785-.2765-.0898-.5321-.135-.7677-.135-.344 0-.6139.0964-.8117.2892-.1973.1923-.2955.4399-.2955.7418 0 .1862.0353.3546.1064.5073.071.1533.1691.2806.2949.3831.1267.103.3854.2471.7764.4333l.6062.2841c.505.2354.8608.517 1.0637.8438.2039.3272.3062.7427.3062 1.2476 0 .5474-.2234 1.0122-.6696 1.3942-.4468.3816-1.0438.5723-1.7921.5723-.6558.0005-1.2165-.1522-1.6821-.4576z"/><path d="m76.1387 47.6834-.3389.8518c-.3235-.2323-.8321-.349-1.5257-.349-.6497 0-1.1721.2755-1.5636.8265-.3926.551-.5888 1.2613-.5888 2.1309 0 .8301.2019 1.5028.6041 2.0188.4023.5165.9221.7738 1.5585.7738.6941 0 1.2278-.242 1.6024-.7271l.5551.7616c-.5857.5748-1.3402.8615-2.2638.8615-.9671 0-1.7277-.3435-2.2838-1.031-.5561-.687-.8337-1.5931-.8337-2.718 0-1.0888.2965-1.9934.8889-2.7134.5929-.7204 1.3591-1.0806 2.2991-1.0806.8056.001 1.4358.1319 1.8902.3942z"/><path d="m87.0604 54.7089v-3.5252h-3.234v3.5252h-1.01v-7.2944h1.01v2.9229h3.234v-2.9229h1.01v7.2944z"/><path d="m94.5957 50.9995c0-1.0553.2684-1.9386.8056-2.6489.5377-.7098 1.263-1.0655 2.1759-1.0655 1.0274 0 1.815.3272 2.3615.9807.5473.654.8213 1.5648.8213 2.7327 0 1.1989-.274 2.137-.8234 2.8159-.549.6789-1.3351 1.0183-2.3594 1.0183-.9334 0-1.6638-.3587-2.1908-1.0756-.5269-.7169-.7907-1.6358-.7907-2.7576zm1.0611 0c0 .8367.1677 1.5348.503 2.096.3348.5611.8071.8412 1.4169.8412.6905 0 1.2165-.2567 1.5784-.7717.3629-.514.5433-1.236.5433-2.166 0-1.8783-.7069-2.8179-2.1217-2.8179-.6267 0-1.1036.2522-1.4307.757-.3261.5048-.4892 1.1918-.4892 2.0614z"/><path d="m106.957 50.9995c0-1.0553.268-1.9386.806-2.6489.537-.7103 1.262-1.0655 2.175-1.0655 1.028 0 1.816.3272 2.362.9807.548.654.821 1.5648.821 2.7327 0 1.1989-.274 2.137-.823 2.8159s-1.336 1.0183-2.36 1.0183c-.933 0-1.663-.3587-2.19-1.0756-.527-.7164-.791-1.6358-.791-2.7576zm1.062 0c0 .8367.167 1.5348.502 2.096.335.5611.808.8412 1.417.8412.691 0 1.218-.2567 1.579-.7717.363-.514.544-1.236.544-2.166 0-1.8783-.708-2.8179-2.122-2.8179-.627 0-1.104.2522-1.43.757-.327.5048-.49 1.1918-.49 2.0614z"/><path d="m119.645 54.7089v-7.2944h1.01v6.3979h3.345v.896z"/></g><path d="m25.6226 73v-21.4251l7.1621-1.0447v21.4256z" fill="#5e681e"/><path d="m40.5172 52.3725-14.8946 2.1654v-6.6876l14.8946-2.1659z" fill="#8bb733"/><path d="m49.7739 37.5873-24.1513 3.4607v-6.6876l24.1513-3.4607z" fill="#d0d713"/><path d="m48.47 24.2846-22.8474 3.2944v-6.6881l22.8474-3.2934z" fill="#9db82c"/><path d="m37.0251 12.6329-11.4025 1.581v-6.68761l11.4025-1.58147z" fill="#dbe070"/><path d="m4.92334 44.7772 20.70116 3.0843v-6.6871l-20.70116-3.0848z" fill="#cdd616"/><path d="m0 30.6191 25.6245 3.6688v-6.6871l-25.6245-3.6693z" fill="#dde175"/><path d="m6.35352 18.1521 19.27098 2.7509v-6.6876l-19.27098-2.7504z" fill="#cdd616"/><path d="m18.8813 6.68761 6.743.93355v-6.687604l-6.743-.933556z" fill="#b1c226"/></g></svg>