<svg fill="none" height="29" viewBox="0 0 28 29" width="28" xmlns="http://www.w3.org/2000/svg" xmlns:xlink="http://www.w3.org/1999/xlink"><clipPath id="a"><path d="m0 0h28v29h-28z"/></clipPath><g clip-path="url(#a)" fill="#000"><path d="m11.665 15.8213c0-.3261 0-.6454 0-.9715 0-3.3965 0-6.79312 0-10.1897 0-1.17522.8127-2.10588 1.9668-2.29609 1.3795-.22417 2.6634.82197 2.6839 2.22137.0205 1.54204.0069 3.0773.0069 4.61934v.33966c1.8165-.46193 2.5404-.197 3.3804 1.24992 1.3044-.7065 2.7796-.3396 3.5171 1.1684.5259-.3056 1.0995-.4347 1.7005-.3124 1.0654.2106 1.8644 1.0733 1.8849 2.1602.0341 1.5488.0341 3.1045-.0137 4.6533-.0478 1.6507-.5327 3.2268-1.0175 4.796-.403 1.3043-.7854 2.6221-1.1474 3.94-.0956.3329-.1024.6929-.1297 1.0394-.0342.5027-.2595.788-.6283.7676-.3756-.0204-.56-.3057-.5395-.8288.0478-1.1888.4029-2.3097.7444-3.4373.4644-1.5353.9424-3.0705 1.3385-4.6194.1707-.6589.2117-1.3654.2322-2.0515.0342-1.345.0205-2.6969.0068-4.0419-.0068-.9103-.799-1.4877-1.5912-1.1685-.478.1903-.7307.5639-.7375 1.0802-.0069.5298 0 1.0665-.0069 1.5963-.0068.462-.2185.7201-.5873.7201-.3688-.0068-.5805-.2649-.5873-.7268 0-.8832 0-1.7663 0-2.6494-.0068-.7404-.4712-1.2499-1.1405-1.2567-.6966-.0068-1.1815.5027-1.1883 1.2499-.0068.5231 0 1.0394 0 1.5625-.0068.4075-.2322.6589-.5736.6589-.3415 0-.5805-.2581-.5874-.6589-.0068-.9035 0-1.8138 0-2.7173 0-.7608-.4712-1.2567-1.1678-1.2567-.6897 0-1.1541.5162-1.1541 1.2771v2.6493c0 .4348-.2117.6929-.5668.7065-.362.0068-.601-.2717-.601-.7133 0-3.2132 0-6.43311 0-9.64628 0-.84235-.6829-1.39259-1.4683-1.19559-.519.12907-.8537.57742-.8537 1.16163-.0068 1.66432 0 3.32865 0 4.99297v8.11787c0 .3396-.0683.6113-.4302.72-.3415.1019-.6147-.0339-.84-.4076-.6966-1.1956-1.3864-2.3911-2.08294-3.58-.25952-.4415-.66244-.6521-1.17464-.591-.48487.0544-.89463.4008-.96292.8764-.04098.2853-.01366.6453.13658.8695 1.0722 1.6575 1.74829 3.4713 2.23317 5.3666.30045 1.1684.85365 2.2078 1.52975 3.1996.8264 1.2024 1.6527 2.4115 2.4859 3.6139.0341.0476.0683.0883.1024.1359.2322.3396.198.6657-.0819.8695-.28.2038-.6215.1427-.8537-.1834-.5532-.7744-1.1063-1.5488-1.6459-2.3301-.28-.4008-.5326-.8151-.8126-1.2159-.9698-1.379-1.68004-2.8667-2.07614-4.5039-.36195-1.5217-.97659-2.9346-1.83025-4.2525-.43024-.6657-.53268-1.3994-.23219-2.1399.35512-.8763 1.03122-1.379 1.96683-1.4605.92878-.0815 1.67317.2921 2.17175 1.0801.4029.6386.7717 1.3043 1.1541 1.9564.0205-.0067.0478-.0135.0683-.0135z"/><path d="m25.9722 3.48488c-.1981 0-.321 0-.4371 0-2.4244 0-4.8488 0-7.2732 0-.1434 0-.3073 0-.4302-.05434-.2527-.10869-.3688-.33287-.3346-.6046.0409-.29889.2868-.4891.6419-.4891.8673-.0068 1.7278 0 2.5951 0h4.8488.362c-.1025-.12228-.1571-.197-.2254-.26494-.3551-.35324-.7102-.69969-1.0585-1.05973-.2254-.237759-.2254-.577417-.0274-.801591.2118-.2309673.56-.2785194.7991-.054345.8127.788006 1.6185 1.589596 2.4107 2.404776.2185.22418.2049.51628-.0137.74046-.7785.7948-1.5707 1.57601-2.3629 2.35043-.239.23097-.5805.21059-.799-.00679-.2322-.22418-.239-.57063 0-.82198.3346-.35324.6897-.6929 1.038-1.03256.0683-.08831.1366-.16983.2664-.30569z"/><path d="m2.04222 3.5732c.42342.40759.84683.81518 1.27025 1.22277.21171.2038.24585.45514.10244.71328-.13659.24456-.37561.33287-.64195.25814-.1161-.02717-.22537-.10869-.31415-.19021-.74439-.72007-1.481951-1.46053-2.219512-2.20098-.3209762-.32607-.3141469-.61818.006829-.94425.730732-.72687 1.461463-1.460531 2.192193-2.180607.30732-.3056922.64878-.3192785.90147-.061138.23219.237761.20487.591005-.07513.869525-.39609.4008-.80585.78801-1.27024 1.24315.21171.01359.32098.02038.43024.02038h7.17074c.10244 0 .20488-.00679.30732.00679.35508.02717.60098.26494.60098.57063.0068.32607-.2527.57742-.62147.58421-.99025.00679-1.98049 0-2.97074 0-1.51609 0-3.02536 0-4.54146 0-.08878 0-.17756 0-.26634 0-.02049.02717-.04098.06114-.06147.08831z"/></g></svg>
