<svg width="19" height="16" viewBox="0 0 19 16" fill="none" xmlns="http://www.w3.org/2000/svg"><path
    d="M5.584 12.113c-1.799-.196-2.992-1.046-3.676-2.705h1.566c.017-.034.035-.068.052-.11C1.675 8.684.654 7.46.516 5.536c.562.153 1.09.29 1.617.434.026-.034.044-.068.07-.102C1.147 5.035.559 3.98.55 2.653c0-.698.2-1.387.563-1.863C3.24 3.206 5.905 4.576 9.217 4.805a18.74 18.74 0 0 1-.034-.638c-.06-1.676.631-2.969 2.153-3.709 1.514-.74 2.993-.587 4.317.485.294.238.562.306.908.179.614-.23 1.228-.451 1.877-.68-.225.79-.761 1.36-1.375 1.88.017.033.043.067.06.101.597-.153 1.202-.306 1.8-.46L19 2.04c-.51.51-.995 1.038-1.531 1.515-.268.238-.372.476-.39.833-.215 4.67-2.309 8.227-6.711 10.15-3.486 1.522-6.99 1.242-10.32-.639-.034-.016-.06-.05-.042-.033.934-.128 1.92-.196 2.871-.409.969-.213 1.843-.689 2.707-1.344Z" fill="currentColor"/></svg>
