<svg width="23" height="13" viewBox="0 0 23 13" fill="none" xmlns="http://www.w3.org/2000/svg"><path fill-rule="evenodd" clip-rule="evenodd"
                                                                                  d="M9.638.007C9.2.04 8.646.123 8.424.191c-.381.118-.856.537-.768.678.016.026.104.061.196.078.412.076.76.309.916.612.267.52.386 2.143.243 3.293-.095.76-.135.936-.275 1.211-.377.74-1.243.141-2.196-1.518-.34-.59-1.295-2.485-1.508-2.99C4.774.944 4.692.83 4.4.683L4.152.558 2.287.571C.602.583.407.592.275.664c-.209.113-.298.268-.27.469.03.215.737 1.779 1.259 2.78C2.279 5.865 3.139 7.28 4.058 8.517c1.352 1.818 1.95 2.407 3.332 3.284.645.41 1.11.64 1.686.83.79.263 1.134.313 2.315.34 1.175.027 1.512-.007 1.761-.176.206-.139.269-.33.307-.927.038-.588.154-1.093.313-1.362.14-.238.445-.513.575-.52.457-.022.712.167 1.665 1.229.894.995 1.225 1.288 1.718 1.524.223.105.496.213.607.238.27.062 3.912-.007 4.147-.079.232-.07.483-.314.489-.476.016-.444-.05-.644-.362-1.113-.41-.615-.763-1.009-1.963-2.19-1.275-1.254-1.364-1.37-1.365-1.79-.002-.352.164-.623 1.283-2.096 1.578-2.079 2.21-3.082 2.386-3.79.103-.415.044-.616-.222-.757l-.189-.1-2.27.015c-1.605.01-2.303.03-2.381.067-.153.071-.314.332-.517.834-.54 1.336-1.65 3.26-2.381 4.127-.291.345-.744.699-.895.699-.21 0-.384-.136-.516-.402l-.122-.246.013-2.32C13.485.864 13.479.79 13.247.46c-.229-.325-.787-.436-2.283-.456a30.922 30.922 0 0 0-1.326.002Z" fill="currentColor"/></svg>
