<svg fill="none" height="10" viewBox="0 0 17 10" width="17" xmlns="http://www.w3.org/2000/svg"><path d="m8.83045.193091c-.12874-.1287408-.27504-.19310997-.43889-.19310997-.18726-.00000001-.37452.09362987-.56178.28088997l-7.478667 7.373329c-.09363.09363-.175556.18726-.245779.28089-.0702226.08193-.10533398.158-.10533398.22822-.00000001.10534.05851918.21652.17555798.33356l.702221.70222c.128741.12874.251631.19311.368671.19311.15214 0 .33355-.10533.54422-.316l6.61844-6.44289 6.60089 6.53067c.2107.21067.3921.316.5442.316.1171 0 .2224-.04681.316-.14044l.6496-.632c.1287-.12874.1931-.27504.1931-.43889 0-.21067-.0878-.38623-.2633-.52667z" fill="#8bb733"/></svg>