<svg fill="none" height="28" viewBox="0 0 32 28" width="32" xmlns="http://www.w3.org/2000/svg"><path d="m19.707 28v-8.9737c0-3.1384.4943-5.9662 1.4828-8.4834.9886-2.54991 2.1206-4.72387 3.3962-6.52188 1.3074-1.79802 2.4235-3.138358 3.3482-4.02102l3.8745 2.15762c-.7335.88266-1.6263 2.0432-2.6787 3.48161-1.0204 1.43841-1.9292 3.08932-2.7264 4.95267-.7653 1.8308-1.148 3.8249-1.148 5.9825h6.7444v11.4256zm-19.707 0v-8.9737c0-3.1384.49427-5.9662 1.48281-8.4834.98854-2.54991 2.12058-4.72387 3.39611-6.52188 1.30743-1.79802 2.42352-3.138358 3.34829-4.02102l3.87439 2.15762c-.7334.88266-1.6263 2.0432-2.67858 3.48161-1.02043 1.43841-1.92925 3.08932-2.72646 4.95267-.76532 1.8308-1.14798 3.8249-1.14798 5.9825h6.74442v11.4256z" fill="currentColor"/></svg>