<svg fill="none" height="83" viewBox="0 0 58 83" width="58" xmlns="http://www.w3.org/2000/svg"><path d="m28.7786 82.1942c-1.4314-1.7841-2.5525-3.5718-3.689-5.3852l-.0051-.0081-.0054-.0079c-6.1873-9.0828-12.363-18.5437-17.30041-27.9974-2.48098-4.7504-4.92553-9.4365-6.14655-14.5019l-.00361-.015-.00452-.0147c-2.022925-6.5847-1.214271-12.7696 1.61576-18.1883 4.45913-8.53795 11.33413-13.1964 21.10703-15.146556 14.9952-2.713414 29.9998 7.772926 32.8378 22.116956.8036 4.6228.0031 8.8726-1.6263 13.1624l-.0002-.0001-.0046.0132c-2.4597 7.0647-6.1541 14.1415-10.2695 20.8395v-.0001l-.0033.0055c-4.911 8.2277-10.2287 16.4561-15.9534 24.6851-.082.0251-.1599.0618-.2332.1109-.1428.0957-.2372.2191-.2996.3086-.0054.0078-.0107.0155-.0159.0231z" fill="#000" stroke="#000"/><g clip-rule="evenodd" fill-rule="evenodd"><path d="m29.0396 50.9997v-11.7398l3.9244-.5724v11.7401z" fill="#000"/><path d="m37.201 39.6969-8.1614 1.1866v-3.6645l8.1614-1.1868z" fill="#000"/><path d="m42.2732 31.5961-13.2336 1.8963v-3.6645l13.2336-1.8963z" fill="#000"/><path d="m41.5587 24.3067-12.5191 1.8052v-3.6648l12.5191-1.8045z" fill="#000"/><path d="m35.2875 17.922-6.2479.8663v-3.6644l6.2479-.8666z" fill="#000"/><path d="m17.6978 35.5355 11.3431 1.6901v-3.6642l-11.3431-1.6903z" fill="#000"/><path d="m15 27.7777 14.0408 2.0103v-3.6642l-14.0408-2.0105z" fill="#000"/><path d="m18.4814 20.9464 10.5595 1.5074v-3.6645l-10.5595-1.5071z" fill="#000"/><path d="m25.3462 14.6644 3.6948.5116v-3.6645l-3.6948-.5115z" fill="#000"/></g></svg>