<svg xmlns="http://www.w3.org/2000/svg" xmlns:xlink="http://www.w3.org/1999/xlink"><symbol id="arrow-down" viewBox="0 0 12 7"><path d="m5.38783 6.348c.088.088.188.132.3.132.128 0 .256-.064.384-.192l5.11197-5.04c.064-.064.12-.128.168-.192.048-.056.072-.108.072-.156 0-.072-.04-.148-.12-.228l-.48-.48c-.088-.088-.172-.1319999-.252-.1319999-.104 0-.228.0719999-.372.2159999l-4.52397 4.404-4.512-4.464c-.144-.1440004-.268004-.21600046-.372004-.21600046-.08-.00000001-.151999.03200006-.215999.09600006l-.444001.4320004c-.0879999.088-.1319996.188-.13199961.3 0 .144.06000041.264.18000061.36z" fill="currentColor"/></symbol><symbol id="arrow-down2" viewBox="0 0 16 19"><path d="m7.29289 18.7071c.39053.3905 1.02369.3905 1.41422 0l6.36399-6.364c.3905-.3905.3905-1.0236 0-1.4142-.3906-.3905-1.0237-.3905-1.4142 0l-5.6569 5.6569-5.65685-5.6569c-.39053-.3905-1.02369-.3905-1.414217 0-.390525.3906-.390525 1.0237 0 1.4142zm-.29289-18.70709996v17.99999996h2v-18.00000004z" fill="currentColor"/></symbol><symbol id="arrow-right" viewBox="0 0 28 16"><path d="M27.707 8.707a1 1 0 0 0 0-1.414L21.343.929a1 1 0 1 0-1.414 1.414L25.586 8l-5.657 5.657a1 1 0 0 0 1.414 1.414l6.364-6.364ZM0 9h27V7H0v2Z" fill="currentColor"/></symbol><symbol id="close" viewBox="0 0 26 26">
<rect x="1.41455" y="0.000610352" width="34" height="2" transform="rotate(45 1.41455 0.000610352)" fill="currentColor"/>
<rect y="24.0416" width="34" height="2" transform="rotate(-45 0 24.0416)" fill="currentColor"/>
</symbol><symbol id="logo" viewBox="0 0 124 73"><g clip-rule="evenodd" fill-rule="evenodd"><g fill="#9db82c"><path d="m77.9702 44.109-1.8345-5.5709h-9.8987l-1.9618 5.5709h-4.0691l10.808-26.7743h.963l10.026 26.7743zm-6.6474-19.8513-4.1228 11.6294h7.9012z"/><path d="m92.3933 44.109h-7.5925v-26.4136c3.2329-.1562 5.5643-.2344 6.9929-.2344 2.6278 0 4.6621.5617 6.1025 1.6855 1.4414 1.1243 2.1618 2.7317 2.1618 4.8235 0 1.2263-.4602 2.3441-1.3808 3.3537-.92 1.0102-1.9372 1.6409-3.0515 1.893 2.1069.5054 3.6414 1.3405 4.6053 2.5069.963 1.166 1.444 2.752 1.444 4.7596 0 2.3197-.857 4.1711-2.571 5.5532-1.7123 1.3815-3.9496 2.0726-6.7107 2.0726zm-3.9598-23.5292v7.5907c.7626.0721 1.7077.1086 2.8337.1086 3.439 0 5.1584-1.3887 5.1584-4.165 0-2.4404-1.5799-3.6601-4.7403-3.6601-1.2119-.0005-2.2955.0416-3.2518.1258zm0 10.3853v10.0789c1.2466.1202 2.204.1801 2.8695.1801 2.2766 0 3.9383-.4232 4.9862-1.2705 1.0468-.8478 1.5712-2.1969 1.5712-4.0483 0-1.7184-.4999-2.9863-1.4992-3.8042-.9987-.8169-2.6671-1.2258-5.004-1.2258z"/><path d="m122.836 18.6686-1.217 3.0832c-1.162-.8417-2.991-1.2623-5.485-1.2623-2.338 0-4.211.998-5.622 2.993-1.41 1.9954-2.116 4.5678-2.116 7.7165 0 3.0057.723 5.4425 2.17 7.3117 1.448 1.8691 3.315 2.8037 5.604 2.8037 2.494 0 4.414-.8772 5.758-2.6322l1.998 2.7585c-2.107 2.0797-4.82 3.1188-8.138 3.1188-3.475 0-6.212-1.244-8.21-3.7322-1.998-2.4881-2.997-5.7698-2.997-9.8444 0-3.9423 1.065-7.2183 3.197-9.8262 2.131-2.6084 4.886-3.9123 8.265-3.9123 2.894-.0005 5.159.4749 6.793 1.4242z"/></g><g fill="#b0c625"><path d="m60.7856 54.375.3685-.9163c.1886.1365.4242.2496.7059.3409.2806.0914.5326.137.7549.137.3941 0 .711-.106.9502-.3181.2392-.2126.3589-.4835.3589-.8123 0-.2456-.0665-.4734-.2004-.6844-.1334-.2111-.4677-.4409-1.0029-.6895l-.596-.274c-.5055-.2324-.8587-.5079-1.058-.8265-.2009-.3186-.3011-.7022-.3011-1.1502 0-.5449.1958-.9955.5863-1.3542s.8919-.5378 1.5053-.5378c.8183 0 1.3883.1314 1.7077.3932l-.298.8666c-.1344-.0964-.3404-.1898-.6164-.2785-.2765-.0898-.5321-.135-.7677-.135-.344 0-.6139.0964-.8117.2892-.1973.1923-.2955.4399-.2955.7418 0 .1862.0353.3546.1064.5073.071.1533.1691.2806.2949.3831.1267.103.3854.2471.7764.4333l.6062.2841c.505.2354.8608.517 1.0637.8438.2039.3272.3062.7427.3062 1.2476 0 .5474-.2234 1.0122-.6696 1.3942-.4468.3816-1.0438.5723-1.7921.5723-.6558.0005-1.2165-.1522-1.6821-.4576z"/><path d="m76.1387 47.6834-.3389.8518c-.3235-.2323-.8321-.349-1.5257-.349-.6497 0-1.1721.2755-1.5636.8265-.3926.551-.5888 1.2613-.5888 2.1309 0 .8301.2019 1.5028.6041 2.0188.4023.5165.9221.7738 1.5585.7738.6941 0 1.2278-.242 1.6024-.7271l.5551.7616c-.5857.5748-1.3402.8615-2.2638.8615-.9671 0-1.7277-.3435-2.2838-1.031-.5561-.687-.8337-1.5931-.8337-2.718 0-1.0888.2965-1.9934.8889-2.7134.5929-.7204 1.3591-1.0806 2.2991-1.0806.8056.001 1.4358.1319 1.8902.3942z"/><path d="m87.0604 54.7089v-3.5252h-3.234v3.5252h-1.01v-7.2944h1.01v2.9229h3.234v-2.9229h1.01v7.2944z"/><path d="m94.5957 50.9995c0-1.0553.2684-1.9386.8056-2.6489.5377-.7098 1.263-1.0655 2.1759-1.0655 1.0274 0 1.815.3272 2.3615.9807.5473.654.8213 1.5648.8213 2.7327 0 1.1989-.274 2.137-.8234 2.8159-.549.6789-1.3351 1.0183-2.3594 1.0183-.9334 0-1.6638-.3587-2.1908-1.0756-.5269-.7169-.7907-1.6358-.7907-2.7576zm1.0611 0c0 .8367.1677 1.5348.503 2.096.3348.5611.8071.8412 1.4169.8412.6905 0 1.2165-.2567 1.5784-.7717.3629-.514.5433-1.236.5433-2.166 0-1.8783-.7069-2.8179-2.1217-2.8179-.6267 0-1.1036.2522-1.4307.757-.3261.5048-.4892 1.1918-.4892 2.0614z"/><path d="m106.957 50.9995c0-1.0553.268-1.9386.806-2.6489.537-.7103 1.262-1.0655 2.175-1.0655 1.028 0 1.816.3272 2.362.9807.548.654.821 1.5648.821 2.7327 0 1.1989-.274 2.137-.823 2.8159s-1.336 1.0183-2.36 1.0183c-.933 0-1.663-.3587-2.19-1.0756-.527-.7164-.791-1.6358-.791-2.7576zm1.062 0c0 .8367.167 1.5348.502 2.096.335.5611.808.8412 1.417.8412.691 0 1.218-.2567 1.579-.7717.363-.514.544-1.236.544-2.166 0-1.8783-.708-2.8179-2.122-2.8179-.627 0-1.104.2522-1.43.757-.327.5048-.49 1.1918-.49 2.0614z"/><path d="m119.645 54.7089v-7.2944h1.01v6.3979h3.345v.896z"/></g><path d="m25.6226 73v-21.4251l7.1621-1.0447v21.4256z" fill="#5e681e"/><path d="m40.5172 52.3725-14.8946 2.1654v-6.6876l14.8946-2.1659z" fill="#8bb733"/><path d="m49.7739 37.5873-24.1513 3.4607v-6.6876l24.1513-3.4607z" fill="#d0d713"/><path d="m48.47 24.2846-22.8474 3.2944v-6.6881l22.8474-3.2934z" fill="#9db82c"/><path d="m37.0251 12.6329-11.4025 1.581v-6.68761l11.4025-1.58147z" fill="#dbe070"/><path d="m4.92334 44.7772 20.70116 3.0843v-6.6871l-20.70116-3.0848z" fill="#cdd616"/><path d="m0 30.6191 25.6245 3.6688v-6.6871l-25.6245-3.6693z" fill="#dde175"/><path d="m6.35352 18.1521 19.27098 2.7509v-6.6876l-19.27098-2.7504z" fill="#cdd616"/><path d="m18.8813 6.68761 6.743.93355v-6.687604l-6.743-.933556z" fill="#b1c226"/></g></symbol><symbol id="play" viewBox="0 0 122 122"><path fill-rule="evenodd" clip-rule="evenodd" d="M61 121c33.137 0 60-26.863 60-60s-26.863-60-60-60-60 26.863-60 60 26.863 60 60 60zm0 1c33.689 0 61-27.311 61-61s-27.311-61-61-61-61 27.311-61 61 27.311 61 61 61z" fill="currentColor"/><path d="M70 61l-12 6.928v-13.856l12 6.928z" fill="currentColor"/></symbol><symbol id="quotes" viewBox="0 0 32 28"><path d="m19.707 28v-8.9737c0-3.1384.4943-5.9662 1.4828-8.4834.9886-2.54991 2.1206-4.72387 3.3962-6.52188 1.3074-1.79802 2.4235-3.138358 3.3482-4.02102l3.8745 2.15762c-.7335.88266-1.6263 2.0432-2.6787 3.48161-1.0204 1.43841-1.9292 3.08932-2.7264 4.95267-.7653 1.8308-1.148 3.8249-1.148 5.9825h6.7444v11.4256zm-19.707 0v-8.9737c0-3.1384.49427-5.9662 1.48281-8.4834.98854-2.54991 2.12058-4.72387 3.39611-6.52188 1.30743-1.79802 2.42352-3.138358 3.34829-4.02102l3.87439 2.15762c-.7334.88266-1.6263 2.0432-2.67858 3.48161-1.02043 1.43841-1.92925 3.08932-2.72646 4.95267-.76532 1.8308-1.14798 3.8249-1.14798 5.9825h6.74442v11.4256z" fill="currentColor"/></symbol><symbol id="search" viewBox="0 0 14 14"><g stroke="currentColor" fill="none" stroke-miterlimit="10" stroke-opacity=".8"><path d="m6.23587 11.2438c2.8917 0 5.23583-2.29317 5.23583-5.12191s-2.34413-5.12189-5.23583-5.12189c-2.89169 0-5.23587 2.29315-5.23587 5.12189s2.34418 5.12191 5.23587 5.12191z"/><path d="m9.79248 9.79416 3.16132 2.99584"/></g></symbol><symbol id="swipe" viewBox="0 0 28 29"><clipPath id="a"><path d="m0 0h28v29h-28z"/></clipPath><g clip-path="url(#a)" fill="#000"><path d="m11.665 15.8213c0-.3261 0-.6454 0-.9715 0-3.3965 0-6.79312 0-10.1897 0-1.17522.8127-2.10588 1.9668-2.29609 1.3795-.22417 2.6634.82197 2.6839 2.22137.0205 1.54204.0069 3.0773.0069 4.61934v.33966c1.8165-.46193 2.5404-.197 3.3804 1.24992 1.3044-.7065 2.7796-.3396 3.5171 1.1684.5259-.3056 1.0995-.4347 1.7005-.3124 1.0654.2106 1.8644 1.0733 1.8849 2.1602.0341 1.5488.0341 3.1045-.0137 4.6533-.0478 1.6507-.5327 3.2268-1.0175 4.796-.403 1.3043-.7854 2.6221-1.1474 3.94-.0956.3329-.1024.6929-.1297 1.0394-.0342.5027-.2595.788-.6283.7676-.3756-.0204-.56-.3057-.5395-.8288.0478-1.1888.4029-2.3097.7444-3.4373.4644-1.5353.9424-3.0705 1.3385-4.6194.1707-.6589.2117-1.3654.2322-2.0515.0342-1.345.0205-2.6969.0068-4.0419-.0068-.9103-.799-1.4877-1.5912-1.1685-.478.1903-.7307.5639-.7375 1.0802-.0069.5298 0 1.0665-.0069 1.5963-.0068.462-.2185.7201-.5873.7201-.3688-.0068-.5805-.2649-.5873-.7268 0-.8832 0-1.7663 0-2.6494-.0068-.7404-.4712-1.2499-1.1405-1.2567-.6966-.0068-1.1815.5027-1.1883 1.2499-.0068.5231 0 1.0394 0 1.5625-.0068.4075-.2322.6589-.5736.6589-.3415 0-.5805-.2581-.5874-.6589-.0068-.9035 0-1.8138 0-2.7173 0-.7608-.4712-1.2567-1.1678-1.2567-.6897 0-1.1541.5162-1.1541 1.2771v2.6493c0 .4348-.2117.6929-.5668.7065-.362.0068-.601-.2717-.601-.7133 0-3.2132 0-6.43311 0-9.64628 0-.84235-.6829-1.39259-1.4683-1.19559-.519.12907-.8537.57742-.8537 1.16163-.0068 1.66432 0 3.32865 0 4.99297v8.11787c0 .3396-.0683.6113-.4302.72-.3415.1019-.6147-.0339-.84-.4076-.6966-1.1956-1.3864-2.3911-2.08294-3.58-.25952-.4415-.66244-.6521-1.17464-.591-.48487.0544-.89463.4008-.96292.8764-.04098.2853-.01366.6453.13658.8695 1.0722 1.6575 1.74829 3.4713 2.23317 5.3666.30045 1.1684.85365 2.2078 1.52975 3.1996.8264 1.2024 1.6527 2.4115 2.4859 3.6139.0341.0476.0683.0883.1024.1359.2322.3396.198.6657-.0819.8695-.28.2038-.6215.1427-.8537-.1834-.5532-.7744-1.1063-1.5488-1.6459-2.3301-.28-.4008-.5326-.8151-.8126-1.2159-.9698-1.379-1.68004-2.8667-2.07614-4.5039-.36195-1.5217-.97659-2.9346-1.83025-4.2525-.43024-.6657-.53268-1.3994-.23219-2.1399.35512-.8763 1.03122-1.379 1.96683-1.4605.92878-.0815 1.67317.2921 2.17175 1.0801.4029.6386.7717 1.3043 1.1541 1.9564.0205-.0067.0478-.0135.0683-.0135z"/><path d="m25.9722 3.48488c-.1981 0-.321 0-.4371 0-2.4244 0-4.8488 0-7.2732 0-.1434 0-.3073 0-.4302-.05434-.2527-.10869-.3688-.33287-.3346-.6046.0409-.29889.2868-.4891.6419-.4891.8673-.0068 1.7278 0 2.5951 0h4.8488.362c-.1025-.12228-.1571-.197-.2254-.26494-.3551-.35324-.7102-.69969-1.0585-1.05973-.2254-.237759-.2254-.577417-.0274-.801591.2118-.2309673.56-.2785194.7991-.054345.8127.788006 1.6185 1.589596 2.4107 2.404776.2185.22418.2049.51628-.0137.74046-.7785.7948-1.5707 1.57601-2.3629 2.35043-.239.23097-.5805.21059-.799-.00679-.2322-.22418-.239-.57063 0-.82198.3346-.35324.6897-.6929 1.038-1.03256.0683-.08831.1366-.16983.2664-.30569z"/><path d="m2.04222 3.5732c.42342.40759.84683.81518 1.27025 1.22277.21171.2038.24585.45514.10244.71328-.13659.24456-.37561.33287-.64195.25814-.1161-.02717-.22537-.10869-.31415-.19021-.74439-.72007-1.481951-1.46053-2.219512-2.20098-.3209762-.32607-.3141469-.61818.006829-.94425.730732-.72687 1.461463-1.460531 2.192193-2.180607.30732-.3056922.64878-.3192785.90147-.061138.23219.237761.20487.591005-.07513.869525-.39609.4008-.80585.78801-1.27024 1.24315.21171.01359.32098.02038.43024.02038h7.17074c.10244 0 .20488-.00679.30732.00679.35508.02717.60098.26494.60098.57063.0068.32607-.2527.57742-.62147.58421-.99025.00679-1.98049 0-2.97074 0-1.51609 0-3.02536 0-4.54146 0-.08878 0-.17756 0-.26634 0-.02049.02717-.04098.06114-.06147.08831z"/></g></symbol><symbol id="telegram"><path d="m7.9 15.201.326-4.525 8.949-7.403c.396-.332-.082-.492-.606-.204L5.523 9.478.746 8.087c-1.025-.268-1.037-.92.233-1.39L19.587.105c.85-.353 1.666.193 1.34 1.39l-3.17 13.705c-.221.974-.862 1.209-1.747.76l-4.824-3.274-2.319 2.065c-.268.246-.49.45-.967.45Z" fill="currentColor"/></symbol><symbol id="twitter" viewBox="0 0 19 16"><path d="M5.584 12.113c-1.799-.196-2.992-1.046-3.676-2.705h1.566c.017-.034.035-.068.052-.11C1.675 8.684.654 7.46.516 5.536c.562.153 1.09.29 1.617.434.026-.034.044-.068.07-.102C1.147 5.035.559 3.98.55 2.653c0-.698.2-1.387.563-1.863C3.24 3.206 5.905 4.576 9.217 4.805a18.74 18.74 0 0 1-.034-.638c-.06-1.676.631-2.969 2.153-3.709 1.514-.74 2.993-.587 4.317.485.294.238.562.306.908.179.614-.23 1.228-.451 1.877-.68-.225.79-.761 1.36-1.375 1.88.017.033.043.067.06.101.597-.153 1.202-.306 1.8-.46L19 2.04c-.51.51-.995 1.038-1.531 1.515-.268.238-.372.476-.39.833-.215 4.67-2.309 8.227-6.711 10.15-3.486 1.522-6.99 1.242-10.32-.639-.034-.016-.06-.05-.042-.033.934-.128 1.92-.196 2.871-.409.969-.213 1.843-.689 2.707-1.344Z" fill="currentColor"/></symbol><symbol id="vk" viewBox="0 0 23 13"><path fill-rule="evenodd" clip-rule="evenodd" d="M9.638.007C9.2.04 8.646.123 8.424.191c-.381.118-.856.537-.768.678.016.026.104.061.196.078.412.076.76.309.916.612.267.52.386 2.143.243 3.293-.095.76-.135.936-.275 1.211-.377.74-1.243.141-2.196-1.518-.34-.59-1.295-2.485-1.508-2.99C4.774.944 4.692.83 4.4.683L4.152.558 2.287.571C.602.583.407.592.275.664c-.209.113-.298.268-.27.469.03.215.737 1.779 1.259 2.78C2.279 5.865 3.139 7.28 4.058 8.517c1.352 1.818 1.95 2.407 3.332 3.284.645.41 1.11.64 1.686.83.79.263 1.134.313 2.315.34 1.175.027 1.512-.007 1.761-.176.206-.139.269-.33.307-.927.038-.588.154-1.093.313-1.362.14-.238.445-.513.575-.52.457-.022.712.167 1.665 1.229.894.995 1.225 1.288 1.718 1.524.223.105.496.213.607.238.27.062 3.912-.007 4.147-.079.232-.07.483-.314.489-.476.016-.444-.05-.644-.362-1.113-.41-.615-.763-1.009-1.963-2.19-1.275-1.254-1.364-1.37-1.365-1.79-.002-.352.164-.623 1.283-2.096 1.578-2.079 2.21-3.082 2.386-3.79.103-.415.044-.616-.222-.757l-.189-.1-2.27.015c-1.605.01-2.303.03-2.381.067-.153.071-.314.332-.517.834-.54 1.336-1.65 3.26-2.381 4.127-.291.345-.744.699-.895.699-.21 0-.384-.136-.516-.402l-.122-.246.013-2.32C13.485.864 13.479.79 13.247.46c-.229-.325-.787-.436-2.283-.456a30.922 30.922 0 0 0-1.326.002Z" fill="currentColor"/></symbol></svg>